# xmcd
#
# Track frame offsets: 
#        150
#        2122
#        5357
#        9407
#        11755
#        13800
#        16500
#        48870
#        128767
#        221012
#
# Disc length: 3247 seconds
#
# Revision: 1
# Processed by: cddbd v1.5.2PL0 Copyright (c) Steve Scherf et al.
# Submitted via: ExactAudioCopy v0.95b3
#
DISCID=690cad0a
DTITLE=Mary Chapin Carpenter - Stones in the Road
DYEAR=1994
DGENRE=Folk
TTITLE0=Intro to Where Time Stands Still
TTITLE1=Intro to Keeper of the Flame
TTITLE2=Intro to John Doe No. 24
TTITLE3=Intro to Shut Up and Kiss Me
TTITLE4=Intro to Tender When I Want to Be
TTITLE5=Intro to House of Cards
TTITLE6=Where Time Stands Still
TTITLE7=Shut Up and Kiss Me, John Doe No. 24
TTITLE8=This is Love, Tender When I Want to Be, House of Cards
TTITLE9=Keeper of the Flame
EXTD=
EXTT0=
EXTT1=
EXTT2=
EXTT3=
EXTT4=
EXTT5=
EXTT6=
EXTT7=
EXTT8=
EXTT9=
PLAYORDER=
